<svg width="107" height="90" viewBox="0 0 107 90" fill="none" xmlns="http://www.w3.org/2000/svg">
<g opacity="0.3">
<mask id="mask0_1_11" style="mask-type:alpha" maskUnits="userSpaceOnUse" x="21" y="12" width="8" height="8">
<path d="M24.9096 19.9773C27.0689 19.9773 28.8193 18.1915 28.8193 15.9886C28.8193 13.7858 27.0689 12 24.9096 12C22.7504 12 21 13.7858 21 15.9886C21 18.1915 22.7504 19.9773 24.9096 19.9773Z" fill="url(#paint0_linear_1_11)"/>
</mask>
<g mask="url(#mask0_1_11)">
<path d="M24.9096 19.9773C27.0689 19.9773 28.8193 18.1915 28.8193 15.9886C28.8193 13.7858 27.0689 12 24.9096 12C22.7504 12 21 13.7858 21 15.9886C21 18.1915 22.7504 19.9773 24.9096 19.9773Z" fill="url(#paint1_linear_1_11)"/>
</g>
<mask id="mask1_1_11" style="mask-type:alpha" maskUnits="userSpaceOnUse" x="43" y="12" width="9" height="8">
<path d="M47.5525 19.9773C49.7117 19.9773 51.4621 18.1915 51.4621 15.9886C51.4621 13.7858 49.7117 12 47.5525 12C45.3933 12 43.6429 13.7858 43.6429 15.9886C43.6429 18.1915 45.3933 19.9773 47.5525 19.9773Z" fill="url(#paint2_linear_1_11)"/>
</mask>
<g mask="url(#mask1_1_11)">
<path d="M47.5529 19.9773C49.7121 19.9773 51.4625 18.1915 51.4625 15.9886C51.4625 13.7858 49.7121 12 47.5529 12C45.3937 12 43.6432 13.7858 43.6432 15.9886C43.6432 18.1915 45.3937 19.9773 47.5529 19.9773Z" fill="url(#paint3_linear_1_11)"/>
</g>
<mask id="mask2_1_11" style="mask-type:alpha" maskUnits="userSpaceOnUse" x="66" y="12" width="9" height="8">
<path d="M70.1953 19.9773C72.3546 19.9773 74.105 18.1915 74.105 15.9886C74.105 13.7858 72.3546 12 70.1953 12C68.0361 12 66.2857 13.7858 66.2857 15.9886C66.2857 18.1915 68.0361 19.9773 70.1953 19.9773Z" fill="url(#paint4_linear_1_11)"/>
</mask>
<g mask="url(#mask2_1_11)">
<path d="M70.196 19.9773C72.3552 19.9773 74.1056 18.1915 74.1056 15.9886C74.1056 13.7858 72.3552 12 70.196 12C68.0368 12 66.2864 13.7858 66.2864 15.9886C66.2864 18.1915 68.0368 19.9773 70.196 19.9773Z" fill="url(#paint5_linear_1_11)"/>
</g>
<mask id="mask3_1_11" style="mask-type:alpha" maskUnits="userSpaceOnUse" x="88" y="12" width="9" height="8">
<path d="M92.8382 19.9773C94.9974 19.9773 96.7478 18.1915 96.7478 15.9886C96.7478 13.7858 94.9974 12 92.8382 12C90.6789 12 88.9285 13.7858 88.9285 15.9886C88.9285 18.1915 90.6789 19.9773 92.8382 19.9773Z" fill="url(#paint6_linear_1_11)"/>
</mask>
<g mask="url(#mask3_1_11)">
<path d="M92.8388 19.9773C94.998 19.9773 96.7484 18.1915 96.7484 15.9886C96.7484 13.7858 94.998 12 92.8388 12C90.6795 12 88.9291 13.7858 88.9291 15.9886C88.9291 18.1915 90.6795 19.9773 92.8388 19.9773Z" fill="url(#paint7_linear_1_11)"/>
</g>
<mask id="mask4_1_11" style="mask-type:alpha" maskUnits="userSpaceOnUse" x="21" y="32" width="8" height="9">
<path d="M24.9096 40.0037C27.0689 40.0037 28.8193 38.2179 28.8193 36.015C28.8193 33.8122 27.0689 32.0264 24.9096 32.0264C22.7504 32.0264 21 33.8122 21 36.015C21 38.2179 22.7504 40.0037 24.9096 40.0037Z" fill="url(#paint8_linear_1_11)"/>
</mask>
<g mask="url(#mask4_1_11)">
<path d="M24.9096 40.0037C27.0689 40.0037 28.8193 38.218 28.8193 36.0151C28.8193 33.8122 27.0689 32.0265 24.9096 32.0265C22.7504 32.0265 21 33.8122 21 36.0151C21 38.218 22.7504 40.0037 24.9096 40.0037Z" fill="url(#paint9_linear_1_11)"/>
</g>
<mask id="mask5_1_11" style="mask-type:alpha" maskUnits="userSpaceOnUse" x="43" y="32" width="9" height="9">
<path d="M47.5525 40.0038C49.7117 40.0038 51.4621 38.218 51.4621 36.0151C51.4621 33.8123 49.7117 32.0265 47.5525 32.0265C45.3933 32.0265 43.6429 33.8123 43.6429 36.0151C43.6429 38.218 45.3933 40.0038 47.5525 40.0038Z" fill="url(#paint10_linear_1_11)"/>
</mask>
<g mask="url(#mask5_1_11)">
<path d="M47.5529 40.0037C49.7121 40.0037 51.4625 38.2179 51.4625 36.0151C51.4625 33.8122 49.7121 32.0264 47.5529 32.0264C45.3937 32.0264 43.6432 33.8122 43.6432 36.0151C43.6432 38.2179 45.3937 40.0037 47.5529 40.0037Z" fill="url(#paint11_linear_1_11)"/>
</g>
<mask id="mask6_1_11" style="mask-type:alpha" maskUnits="userSpaceOnUse" x="66" y="32" width="9" height="9">
<path d="M70.1953 40.0038C72.3546 40.0038 74.105 38.218 74.105 36.0151C74.105 33.8123 72.3546 32.0265 70.1953 32.0265C68.0361 32.0265 66.2857 33.8123 66.2857 36.0151C66.2857 38.218 68.0361 40.0038 70.1953 40.0038Z" fill="url(#paint12_linear_1_11)"/>
</mask>
<g mask="url(#mask6_1_11)">
<path d="M70.196 40.0037C72.3552 40.0037 74.1056 38.2179 74.1056 36.0151C74.1056 33.8122 72.3552 32.0264 70.196 32.0264C68.0368 32.0264 66.2864 33.8122 66.2864 36.0151C66.2864 38.2179 68.0368 40.0037 70.196 40.0037Z" fill="url(#paint13_linear_1_11)"/>
</g>
<mask id="mask7_1_11" style="mask-type:alpha" maskUnits="userSpaceOnUse" x="88" y="32" width="9" height="9">
<path d="M92.8382 40.0038C94.9974 40.0038 96.7478 38.218 96.7478 36.0151C96.7478 33.8123 94.9974 32.0265 92.8382 32.0265C90.6789 32.0265 88.9285 33.8123 88.9285 36.0151C88.9285 38.218 90.6789 40.0038 92.8382 40.0038Z" fill="url(#paint14_linear_1_11)"/>
</mask>
<g mask="url(#mask7_1_11)">
<path d="M92.8388 40.0037C94.998 40.0037 96.7484 38.2179 96.7484 36.0151C96.7484 33.8122 94.998 32.0264 92.8388 32.0264C90.6795 32.0264 88.9291 33.8122 88.9291 36.0151C88.9291 38.2179 90.6795 40.0037 92.8388 40.0037Z" fill="url(#paint15_linear_1_11)"/>
</g>
<mask id="mask8_1_11" style="mask-type:alpha" maskUnits="userSpaceOnUse" x="21" y="52" width="8" height="8">
<path d="M24.9096 59.9887C27.0689 59.9887 28.8193 58.2029 28.8193 56C28.8193 53.7971 27.0689 52.0113 24.9096 52.0113C22.7504 52.0113 21 53.7971 21 56C21 58.2029 22.7504 59.9887 24.9096 59.9887Z" fill="url(#paint16_linear_1_11)"/>
</mask>
<g mask="url(#mask8_1_11)">
<path d="M24.9096 59.9888C27.0689 59.9888 28.8193 58.203 28.8193 56.0001C28.8193 53.7972 27.0689 52.0114 24.9096 52.0114C22.7504 52.0114 21 53.7972 21 56.0001C21 58.203 22.7504 59.9888 24.9096 59.9888Z" fill="url(#paint17_linear_1_11)"/>
</g>
<mask id="mask9_1_11" style="mask-type:alpha" maskUnits="userSpaceOnUse" x="43" y="52" width="9" height="8">
<path d="M47.5525 59.9889C49.7117 59.9889 51.4621 58.2032 51.4621 56.0003C51.4621 53.7974 49.7117 52.0116 47.5525 52.0116C45.3933 52.0116 43.6429 53.7974 43.6429 56.0003C43.6429 58.2032 45.3933 59.9889 47.5525 59.9889Z" fill="url(#paint18_linear_1_11)"/>
</mask>
<g mask="url(#mask9_1_11)">
<path d="M47.5529 59.9888C49.7121 59.9888 51.4625 58.203 51.4625 56.0001C51.4625 53.7972 49.7121 52.0114 47.5529 52.0114C45.3937 52.0114 43.6432 53.7972 43.6432 56.0001C43.6432 58.203 45.3937 59.9888 47.5529 59.9888Z" fill="url(#paint19_linear_1_11)"/>
</g>
<mask id="mask10_1_11" style="mask-type:alpha" maskUnits="userSpaceOnUse" x="66" y="52" width="9" height="8">
<path d="M70.1953 59.9889C72.3546 59.9889 74.105 58.2032 74.105 56.0003C74.105 53.7974 72.3546 52.0116 70.1953 52.0116C68.0361 52.0116 66.2857 53.7974 66.2857 56.0003C66.2857 58.2032 68.0361 59.9889 70.1953 59.9889Z" fill="url(#paint20_linear_1_11)"/>
</mask>
<g mask="url(#mask10_1_11)">
<path d="M70.196 59.9888C72.3552 59.9888 74.1056 58.203 74.1056 56.0001C74.1056 53.7972 72.3552 52.0114 70.196 52.0114C68.0368 52.0114 66.2864 53.7972 66.2864 56.0001C66.2864 58.203 68.0368 59.9888 70.196 59.9888Z" fill="url(#paint21_linear_1_11)"/>
</g>
<mask id="mask11_1_11" style="mask-type:alpha" maskUnits="userSpaceOnUse" x="88" y="52" width="9" height="8">
<path d="M92.8382 59.9889C94.9974 59.9889 96.7478 58.2032 96.7478 56.0003C96.7478 53.7974 94.9974 52.0116 92.8382 52.0116C90.6789 52.0116 88.9285 53.7974 88.9285 56.0003C88.9285 58.2032 90.6789 59.9889 92.8382 59.9889Z" fill="url(#paint22_linear_1_11)"/>
</mask>
<g mask="url(#mask11_1_11)">
<path d="M92.8388 59.9888C94.998 59.9888 96.7484 58.203 96.7484 56.0001C96.7484 53.7972 94.998 52.0114 92.8388 52.0114C90.6795 52.0114 88.9291 53.7972 88.9291 56.0001C88.9291 58.203 90.6795 59.9888 92.8388 59.9888Z" fill="url(#paint23_linear_1_11)"/>
</g>
<mask id="mask12_1_11" style="mask-type:alpha" maskUnits="userSpaceOnUse" x="21" y="72" width="8" height="9">
<path d="M24.9096 80.0155C27.0689 80.0155 28.8193 78.2296 28.8193 76.0268C28.8193 73.8239 27.0689 72.0381 24.9096 72.0381C22.7504 72.0381 21 73.8239 21 76.0268C21 78.2296 22.7504 80.0155 24.9096 80.0155Z" fill="url(#paint24_linear_1_11)"/>
</mask>
<g mask="url(#mask12_1_11)">
<path d="M24.9096 80.0152C27.0689 80.0152 28.8193 78.2294 28.8193 76.0265C28.8193 73.8236 27.0689 72.0379 24.9096 72.0379C22.7504 72.0379 21 73.8236 21 76.0265C21 78.2294 22.7504 80.0152 24.9096 80.0152Z" fill="url(#paint25_linear_1_11)"/>
</g>
<mask id="mask13_1_11" style="mask-type:alpha" maskUnits="userSpaceOnUse" x="43" y="72" width="9" height="9">
<path d="M47.5525 80.0155C49.7117 80.0155 51.4621 78.2296 51.4621 76.0268C51.4621 73.8239 49.7117 72.0381 47.5525 72.0381C45.3933 72.0381 43.6429 73.8239 43.6429 76.0268C43.6429 78.2296 45.3933 80.0155 47.5525 80.0155Z" fill="url(#paint26_linear_1_11)"/>
</mask>
<g mask="url(#mask13_1_11)">
<path d="M47.5529 80.0152C49.7121 80.0152 51.4625 78.2294 51.4625 76.0265C51.4625 73.8236 49.7121 72.0379 47.5529 72.0379C45.3937 72.0379 43.6432 73.8236 43.6432 76.0265C43.6432 78.2294 45.3937 80.0152 47.5529 80.0152Z" fill="url(#paint27_linear_1_11)"/>
</g>
<mask id="mask14_1_11" style="mask-type:alpha" maskUnits="userSpaceOnUse" x="66" y="72" width="9" height="9">
<path d="M70.1953 80.0155C72.3546 80.0155 74.105 78.2296 74.105 76.0268C74.105 73.8239 72.3546 72.0381 70.1953 72.0381C68.0361 72.0381 66.2857 73.8239 66.2857 76.0268C66.2857 78.2296 68.0361 80.0155 70.1953 80.0155Z" fill="url(#paint28_linear_1_11)"/>
</mask>
<g mask="url(#mask14_1_11)">
<path d="M70.196 80.0152C72.3552 80.0152 74.1056 78.2294 74.1056 76.0265C74.1056 73.8236 72.3552 72.0379 70.196 72.0379C68.0368 72.0379 66.2864 73.8236 66.2864 76.0265C66.2864 78.2294 68.0368 80.0152 70.196 80.0152Z" fill="url(#paint29_linear_1_11)"/>
</g>
<mask id="mask15_1_11" style="mask-type:alpha" maskUnits="userSpaceOnUse" x="88" y="72" width="9" height="9">
<path d="M92.8382 80.0155C94.9974 80.0155 96.7478 78.2296 96.7478 76.0268C96.7478 73.8239 94.9974 72.0381 92.8382 72.0381C90.6789 72.0381 88.9285 73.8239 88.9285 76.0268C88.9285 78.2296 90.6789 80.0155 92.8382 80.0155Z" fill="url(#paint30_linear_1_11)"/>
</mask>
<g mask="url(#mask15_1_11)">
<path d="M92.8388 80.0152C94.998 80.0152 96.7484 78.2294 96.7484 76.0265C96.7484 73.8236 94.998 72.0379 92.8388 72.0379C90.6795 72.0379 88.9291 73.8236 88.9291 76.0265C88.9291 78.2294 90.6795 80.0152 92.8388 80.0152Z" fill="url(#paint31_linear_1_11)"/>
</g>
</g>
<defs>
<linearGradient id="paint0_linear_1_11" x1="59.076" y1="104.471" x2="3.51396" y2="-33.7764" gradientUnits="userSpaceOnUse">
<stop stop-color="#FFA434"/>
<stop offset="1" stop-color="#FFA434"/>
</linearGradient>
<linearGradient id="paint1_linear_1_11" x1="59.076" y1="104.471" x2="3.51396" y2="-33.7764" gradientUnits="userSpaceOnUse">
<stop stop-color="#FFA434"/>
<stop offset="1" stop-color="#FFA434"/>
</linearGradient>
<linearGradient id="paint2_linear_1_11" x1="81.7189" y1="104.471" x2="26.1569" y2="-33.7764" gradientUnits="userSpaceOnUse">
<stop stop-color="#FFA434"/>
<stop offset="1" stop-color="#FFA434"/>
</linearGradient>
<linearGradient id="paint3_linear_1_11" x1="81.7193" y1="104.471" x2="26.1573" y2="-33.7764" gradientUnits="userSpaceOnUse">
<stop stop-color="#FFA434"/>
<stop offset="1" stop-color="#FFA434"/>
</linearGradient>
<linearGradient id="paint4_linear_1_11" x1="104.362" y1="104.471" x2="48.7998" y2="-33.7764" gradientUnits="userSpaceOnUse">
<stop stop-color="#FFA434"/>
<stop offset="1" stop-color="#FFA434"/>
</linearGradient>
<linearGradient id="paint5_linear_1_11" x1="104.362" y1="104.471" x2="48.8004" y2="-33.7764" gradientUnits="userSpaceOnUse">
<stop stop-color="#FFA434"/>
<stop offset="1" stop-color="#FFA434"/>
</linearGradient>
<linearGradient id="paint6_linear_1_11" x1="127.005" y1="104.471" x2="71.4426" y2="-33.7764" gradientUnits="userSpaceOnUse">
<stop stop-color="#FFA434"/>
<stop offset="1" stop-color="#FFA434"/>
</linearGradient>
<linearGradient id="paint7_linear_1_11" x1="127.005" y1="104.471" x2="71.4432" y2="-33.7764" gradientUnits="userSpaceOnUse">
<stop stop-color="#FFA434"/>
<stop offset="1" stop-color="#FFA434"/>
</linearGradient>
<linearGradient id="paint8_linear_1_11" x1="59.076" y1="124.496" x2="3.5149" y2="-13.7499" gradientUnits="userSpaceOnUse">
<stop stop-color="#FFA434"/>
<stop offset="1" stop-color="#FFA434"/>
</linearGradient>
<linearGradient id="paint9_linear_1_11" x1="59.076" y1="124.496" x2="3.5149" y2="-13.7499" gradientUnits="userSpaceOnUse">
<stop stop-color="#FFA434"/>
<stop offset="1" stop-color="#FFA434"/>
</linearGradient>
<linearGradient id="paint10_linear_1_11" x1="81.7189" y1="124.496" x2="26.1579" y2="-13.7499" gradientUnits="userSpaceOnUse">
<stop stop-color="#FFA434"/>
<stop offset="1" stop-color="#FFA434"/>
</linearGradient>
<linearGradient id="paint11_linear_1_11" x1="81.7193" y1="124.496" x2="26.1582" y2="-13.7499" gradientUnits="userSpaceOnUse">
<stop stop-color="#FFA434"/>
<stop offset="1" stop-color="#FFA434"/>
</linearGradient>
<linearGradient id="paint12_linear_1_11" x1="104.362" y1="124.496" x2="48.8007" y2="-13.7499" gradientUnits="userSpaceOnUse">
<stop stop-color="#FFA434"/>
<stop offset="1" stop-color="#FFA434"/>
</linearGradient>
<linearGradient id="paint13_linear_1_11" x1="104.362" y1="124.496" x2="48.8014" y2="-13.7499" gradientUnits="userSpaceOnUse">
<stop stop-color="#FFA434"/>
<stop offset="1" stop-color="#FFA434"/>
</linearGradient>
<linearGradient id="paint14_linear_1_11" x1="127.005" y1="124.496" x2="71.4435" y2="-13.7499" gradientUnits="userSpaceOnUse">
<stop stop-color="#FFA434"/>
<stop offset="1" stop-color="#FFA434"/>
</linearGradient>
<linearGradient id="paint15_linear_1_11" x1="127.005" y1="124.496" x2="71.4441" y2="-13.7499" gradientUnits="userSpaceOnUse">
<stop stop-color="#FFA434"/>
<stop offset="1" stop-color="#FFA434"/>
</linearGradient>
<linearGradient id="paint16_linear_1_11" x1="59.076" y1="144.482" x2="3.51396" y2="6.23493" gradientUnits="userSpaceOnUse">
<stop stop-color="#FFA434"/>
<stop offset="1" stop-color="#FFA434"/>
</linearGradient>
<linearGradient id="paint17_linear_1_11" x1="59.076" y1="144.482" x2="3.51396" y2="6.23502" gradientUnits="userSpaceOnUse">
<stop stop-color="#FFA434"/>
<stop offset="1" stop-color="#FFA434"/>
</linearGradient>
<linearGradient id="paint18_linear_1_11" x1="81.7189" y1="144.482" x2="26.1569" y2="6.23516" gradientUnits="userSpaceOnUse">
<stop stop-color="#FFA434"/>
<stop offset="1" stop-color="#FFA434"/>
</linearGradient>
<linearGradient id="paint19_linear_1_11" x1="81.7193" y1="144.482" x2="26.1573" y2="6.23498" gradientUnits="userSpaceOnUse">
<stop stop-color="#FFA434"/>
<stop offset="1" stop-color="#FFA434"/>
</linearGradient>
<linearGradient id="paint20_linear_1_11" x1="104.362" y1="144.482" x2="48.7998" y2="6.23516" gradientUnits="userSpaceOnUse">
<stop stop-color="#FFA434"/>
<stop offset="1" stop-color="#FFA434"/>
</linearGradient>
<linearGradient id="paint21_linear_1_11" x1="104.362" y1="144.482" x2="48.8004" y2="6.23498" gradientUnits="userSpaceOnUse">
<stop stop-color="#FFA434"/>
<stop offset="1" stop-color="#FFA434"/>
</linearGradient>
<linearGradient id="paint22_linear_1_11" x1="127.005" y1="144.482" x2="71.4426" y2="6.23516" gradientUnits="userSpaceOnUse">
<stop stop-color="#FFA434"/>
<stop offset="1" stop-color="#FFA434"/>
</linearGradient>
<linearGradient id="paint23_linear_1_11" x1="127.005" y1="144.482" x2="71.4432" y2="6.23498" gradientUnits="userSpaceOnUse">
<stop stop-color="#FFA434"/>
<stop offset="1" stop-color="#FFA434"/>
</linearGradient>
<linearGradient id="paint24_linear_1_11" x1="59.076" y1="164.509" x2="3.51396" y2="26.2617" gradientUnits="userSpaceOnUse">
<stop stop-color="#FFA434"/>
<stop offset="1" stop-color="#FFA434"/>
</linearGradient>
<linearGradient id="paint25_linear_1_11" x1="59.076" y1="164.509" x2="3.51396" y2="26.2615" gradientUnits="userSpaceOnUse">
<stop stop-color="#FFA434"/>
<stop offset="1" stop-color="#FFA434"/>
</linearGradient>
<linearGradient id="paint26_linear_1_11" x1="81.7189" y1="164.509" x2="26.1569" y2="26.2617" gradientUnits="userSpaceOnUse">
<stop stop-color="#FFA434"/>
<stop offset="1" stop-color="#FFA434"/>
</linearGradient>
<linearGradient id="paint27_linear_1_11" x1="81.7193" y1="164.509" x2="26.1573" y2="26.2614" gradientUnits="userSpaceOnUse">
<stop stop-color="#FFA434"/>
<stop offset="1" stop-color="#FFA434"/>
</linearGradient>
<linearGradient id="paint28_linear_1_11" x1="104.362" y1="164.509" x2="48.7998" y2="26.2617" gradientUnits="userSpaceOnUse">
<stop stop-color="#FFA434"/>
<stop offset="1" stop-color="#FFA434"/>
</linearGradient>
<linearGradient id="paint29_linear_1_11" x1="104.362" y1="164.509" x2="48.8004" y2="26.2614" gradientUnits="userSpaceOnUse">
<stop stop-color="#FFA434"/>
<stop offset="1" stop-color="#FFA434"/>
</linearGradient>
<linearGradient id="paint30_linear_1_11" x1="127.005" y1="164.509" x2="71.4426" y2="26.2617" gradientUnits="userSpaceOnUse">
<stop stop-color="#FFA434"/>
<stop offset="1" stop-color="#FFA434"/>
</linearGradient>
<linearGradient id="paint31_linear_1_11" x1="127.005" y1="164.509" x2="71.4432" y2="26.2614" gradientUnits="userSpaceOnUse">
<stop stop-color="#FFA434"/>
<stop offset="1" stop-color="#FFA434"/>
</linearGradient>
</defs>
</svg>
